<svg width="21" height="18" viewBox="0 0 21 18" fill="none" xmlns="http://www.w3.org/2000/svg">
<g clip-path="url(#clip0_1:2)">
<path d="M9 11.0769C9 12.913 8.27061 14.6739 6.97228 15.9723C5.67395 17.2706 3.91304 18 2.07692 18C1.7097 18 1.35752 17.8541 1.09785 17.5945C0.838187 17.3348 0.692308 16.9826 0.692308 16.6154C0.700383 16.2477 0.851214 15.8976 1.11287 15.6392C1.37453 15.3807 1.72648 15.2343 2.09423 15.2308C3.1929 15.2262 4.245 14.7865 5.02026 14.008C5.79552 13.2295 6.23078 12.1756 6.23077 11.0769V10.3846H2.07692C1.52609 10.3846 0.997816 10.1658 0.608317 9.7763C0.218819 9.3868 9.05519e-07 8.85853 9.53674e-07 8.30769L1.49839e-06 2.07692C1.54655e-06 1.52609 0.21882 0.997817 0.608318 0.608318C0.997817 0.21882 1.52609 -1.00183e-06 2.07692 -9.53674e-07L6.92308 -5.30009e-07C7.47391 -4.81854e-07 8.00219 0.21882 8.39169 0.608318C8.78118 0.997818 9 1.52609 9 2.07692V11.0769Z" fill="#0072DB"/>
<path d="M21 11.0769C21 12.913 20.2706 14.6739 18.9723 15.9723C17.6739 17.2706 15.913 18 14.0769 18C13.7097 18 13.3575 17.8541 13.0979 17.5945C12.8382 17.3348 12.6923 16.9826 12.6923 16.6154C12.7004 16.2477 12.8512 15.8976 13.1129 15.6392C13.3745 15.3807 13.7265 15.2343 14.0942 15.2308C15.1929 15.2262 16.245 14.7865 17.0203 14.008C17.7955 13.2295 18.2308 12.1756 18.2308 11.0769V10.3846H14.0769C13.5261 10.3846 12.9978 10.1658 12.6083 9.7763C12.2188 9.3868 12 8.85853 12 8.30769V2.07692C12 1.52609 12.2188 0.997817 12.6083 0.608318C12.9978 0.21882 13.5261 -1.00183e-06 14.0769 -9.53674e-07L18.9231 -5.30009e-07C19.4739 -4.81854e-07 20.0022 0.21882 20.3917 0.608318C20.7812 0.997818 21 1.52609 21 2.07692V11.0769Z" fill="#0072DB"/>
</g>
<defs>
<clipPath id="clip0_1:2">
<rect width="21" height="18" fill="white"/>
</clipPath>
</defs>
</svg>
