<svg width="40" height="26" viewBox="0 0 40 26" fill="none" xmlns="http://www.w3.org/2000/svg">
<path d="M18.3875 18.7728C17.2272 18.8414 15.9234 18.8875 14.4387 18.8875C9.55304 18.8875 6.41402 18.4322 5.08905 18.0442C5.26746 17.993 5.48205 17.9394 5.72534 17.8882C8.14323 18.3049 11.3621 18.3972 13.7064 18.3972C15.0289 18.3972 16.6271 18.3685 18.2028 18.2675C17.836 17.1222 17.6351 15.9032 17.6351 14.6394C17.6351 14.3125 17.6588 13.9906 17.6838 13.67C16.516 13.7411 15.2035 13.7873 13.7064 13.7873C8.82069 13.7873 5.68167 13.3319 4.3567 12.9439C4.91189 12.7829 5.80643 12.6095 6.99417 12.4635C9.39334 12.8578 12.5161 12.9464 14.8093 12.9464C15.7026 12.9464 16.7244 12.9314 17.7774 12.8927C18.0319 11.1698 18.647 9.56906 19.5565 8.17297C18.2215 8.27279 16.6383 8.33641 14.8093 8.33641C10.9367 8.33641 8.18315 8.04946 6.53879 7.7388C8.22807 7.85857 9.97099 7.89226 11.392 7.89226C14.0407 7.89226 17.7936 7.77249 20.2564 7.19983C20.98 6.2978 21.8296 5.50681 22.7828 4.84557V2.4414C22.7828 0.433978 15.6452 0.133301 11.3908 0.133301C7.13764 0.133301 0 0.43273 0 2.4414V5.58666C0 6.49118 1.45722 7.04887 3.44094 7.38697C3.43595 7.42315 3.41599 7.45559 3.41599 7.49427V10.6395C3.41599 10.9926 3.6468 11.2895 4.03231 11.544C2.98556 11.8784 2.31559 12.3313 2.31559 12.9426V16.0904C2.31559 16.5844 2.7535 16.9774 3.47213 17.2844C3.20764 17.5064 3.04794 17.7547 3.04794 18.0417V21.1919C3.04794 23.1968 10.1831 23.4975 14.4375 23.4975C16.4175 23.4975 19.0175 23.4314 21.2358 23.1594C19.9844 21.938 19.0075 20.4421 18.3875 18.7728ZM2.04236 2.4414C3.36858 2.05464 6.50635 1.59801 11.392 1.59801C16.279 1.59801 19.4167 2.05339 20.743 2.4414C19.4167 2.82692 16.279 3.2823 11.392 3.2823C6.50635 3.2823 3.36858 2.82692 2.04236 2.4414Z" fill="#0072DB"/>
<path d="M29.5698 25.072C35.3302 25.072 39.9999 20.4023 39.9999 14.6419C39.9999 8.88151 35.3302 4.2118 29.5698 4.2118C23.8094 4.2118 19.1397 8.88151 19.1397 14.6419C19.1397 20.4023 23.8094 25.072 29.5698 25.072Z" fill="#0072DB"/>
<path d="M29.5698 7.50562L31.172 12.4367H36.3569L32.1622 15.4843L33.7645 20.4155L29.5698 17.3679L25.3751 20.4155L26.9774 15.4843L22.7827 12.4367H27.9676L29.5698 7.50562Z" fill="white"/>
</svg>
