<svg width="34" height="34" viewBox="0 0 34 34" fill="none" xmlns="http://www.w3.org/2000/svg">
<g clip-path="url(#clip0_0:3)">
<path d="M31.3426 20.1872C30.826 20.1875 30.3207 20.3384 29.8886 20.6215C29.4565 20.9045 29.1163 21.3074 28.9097 21.7809H26.0305V18.0624H26.7848C27.0289 18.6217 27.4581 19.0798 28.0003 19.3598C28.5424 19.6399 29.1645 19.7247 29.7618 19.6C30.3591 19.4753 30.8953 19.1488 31.2802 18.6753C31.6651 18.2018 31.8752 17.6102 31.8752 17C31.8752 16.3898 31.6651 15.7982 31.2802 15.3247C30.8953 14.8512 30.3591 14.5247 29.7618 14.4C29.1645 14.2753 28.5424 14.3601 28.0003 14.6401C27.4581 14.9202 27.0289 15.3783 26.7848 15.9376H26.0305V12.2191H27.8472C28.0913 12.7784 28.5205 13.2365 29.0627 13.5166C29.6048 13.7966 30.2269 13.8814 30.8242 13.7567C31.4215 13.6321 31.9577 13.3055 32.3426 12.832C32.7275 12.3585 32.9376 11.7669 32.9376 11.1567C32.9376 10.5465 32.7275 9.95493 32.3426 9.48143C31.9577 9.00792 31.4215 8.68138 30.8242 8.55671C30.2269 8.43204 29.6048 8.51685 29.0627 8.79687C28.5205 9.07689 28.0913 9.53505 27.8472 10.0943H26.0305V9.03189C26.0305 8.75012 25.9186 8.47989 25.7193 8.28065C25.5201 8.08141 25.2499 7.96948 24.9681 7.96948H23.9057V5.09033C24.4649 4.84625 24.9231 4.41705 25.2031 3.8749C25.4832 3.33275 25.568 2.71071 25.4433 2.11338C25.3186 1.51606 24.9921 0.979871 24.5186 0.594988C24.0451 0.210106 23.4535 0 22.8433 0C22.2331 0 21.6415 0.210106 21.168 0.594988C20.6945 0.979871 20.3679 1.51606 20.2433 2.11338C20.1186 2.71071 20.2034 3.33275 20.4834 3.8749C20.7634 4.41705 21.2216 4.84625 21.7809 5.09033V7.96948H18.0624V7.21516C18.6217 6.97108 19.0798 6.54188 19.3598 5.99973C19.6399 5.45758 19.7247 4.83554 19.6 4.23821C19.4753 3.64088 19.1488 3.1047 18.6753 2.71982C18.2018 2.33493 17.6102 2.12483 17 2.12483C16.3898 2.12483 15.7982 2.33493 15.3247 2.71982C14.8512 3.1047 14.5247 3.64088 14.4 4.23821C14.2753 4.83554 14.3601 5.45758 14.6401 5.99973C14.9202 6.54188 15.3783 6.97108 15.9376 7.21516V7.96948H12.2191V6.15275C12.7784 5.90867 13.2365 5.47947 13.5166 4.93731C13.7966 4.39516 13.8814 3.77312 13.7567 3.1758C13.6321 2.57847 13.3055 2.04229 12.832 1.6574C12.3585 1.27252 11.7669 1.06241 11.1567 1.06241C10.5465 1.06241 9.95493 1.27252 9.48143 1.6574C9.00792 2.04229 8.68138 2.57847 8.55671 3.1758C8.43204 3.77312 8.51685 4.39516 8.79687 4.93731C9.07689 5.47947 9.53505 5.90867 10.0943 6.15275V7.96948H9.03189C8.75012 7.96948 8.47989 8.08141 8.28065 8.28065C8.08141 8.47989 7.96948 8.75012 7.96948 9.03189V10.0943H5.09033C4.84625 9.53505 4.41705 9.07689 3.8749 8.79687C3.33275 8.51685 2.71071 8.43204 2.11338 8.55671C1.51606 8.68138 0.979871 9.00792 0.594988 9.48143C0.210106 9.95493 0 10.5465 0 11.1567C0 11.7669 0.210106 12.3585 0.594988 12.832C0.979871 13.3055 1.51606 13.6321 2.11338 13.7567C2.71071 13.8814 3.33275 13.7966 3.8749 13.5166C4.41705 13.2365 4.84625 12.7784 5.09033 12.2191H7.96948V15.9376H7.21516C6.97108 15.3783 6.54188 14.9202 5.99973 14.6401C5.45758 14.3601 4.83554 14.2753 4.23821 14.4C3.64088 14.5247 3.1047 14.8512 2.71982 15.3247C2.33493 15.7982 2.12483 16.3898 2.12483 17C2.12483 17.6102 2.33493 18.2018 2.71982 18.6753C3.1047 19.1488 3.64088 19.4753 4.23821 19.6C4.83554 19.7247 5.45758 19.6399 5.99973 19.3598C6.54188 19.0798 6.97108 18.6217 7.21516 18.0624H7.96948V21.7809H6.15275C5.90867 21.2216 5.47947 20.7634 4.93731 20.4834C4.39516 20.2034 3.77312 20.1186 3.1758 20.2433C2.57847 20.3679 2.04229 20.6945 1.6574 21.168C1.27252 21.6415 1.06241 22.2331 1.06241 22.8433C1.06241 23.4535 1.27252 24.0451 1.6574 24.5186C2.04229 24.9921 2.57847 25.3186 3.1758 25.4433C3.77312 25.568 4.39516 25.4832 4.93731 25.2031C5.47947 24.9231 5.90867 24.4649 6.15275 23.9057H7.96948V24.9681C7.96948 25.2499 8.08141 25.5201 8.28065 25.7193C8.47989 25.9186 8.75012 26.0305 9.03189 26.0305H10.0943V28.9097C9.53505 29.1537 9.07689 29.5829 8.79687 30.1251C8.51685 30.6672 8.43204 31.2893 8.55671 31.8866C8.68138 32.4839 9.00792 33.0201 9.48143 33.405C9.95493 33.7899 10.5465 34 11.1567 34C11.7669 34 12.3585 33.7899 12.832 33.405C13.3055 33.0201 13.6321 32.4839 13.7567 31.8866C13.8814 31.2893 13.7966 30.6672 13.5166 30.1251C13.2365 29.5829 12.7784 29.1537 12.2191 28.9097V26.0305H15.9376V26.7848C15.3783 27.0289 14.9202 27.4581 14.6401 28.0003C14.3601 28.5424 14.2753 29.1645 14.4 29.7618C14.5247 30.3591 14.8512 30.8953 15.3247 31.2802C15.7982 31.6651 16.3898 31.8752 17 31.8752C17.6102 31.8752 18.2018 31.6651 18.6753 31.2802C19.1488 30.8953 19.4753 30.3591 19.6 29.7618C19.7247 29.1645 19.6399 28.5424 19.3598 28.0003C19.0798 27.4581 18.6217 27.0289 18.0624 26.7848V26.0305H21.7809V27.8472C21.2216 28.0913 20.7634 28.5205 20.4834 29.0627C20.2034 29.6048 20.1186 30.2269 20.2433 30.8242C20.3679 31.4215 20.6945 31.9577 21.168 32.3426C21.6415 32.7275 22.2331 32.9376 22.8433 32.9376C23.4535 32.9376 24.0451 32.7275 24.5186 32.3426C24.9921 31.9577 25.3186 31.4215 25.4433 30.8242C25.568 30.2269 25.4832 29.6048 25.2031 29.0627C24.9231 28.5205 24.4649 28.0913 23.9057 27.8472V26.0305H24.9681C25.2499 26.0305 25.5201 25.9186 25.7193 25.7193C25.9186 25.5201 26.0305 25.2499 26.0305 24.9681V23.9057H28.9097C29.1012 24.3446 29.4079 24.7236 29.7972 25.0025C30.1866 25.2814 30.6441 25.4498 31.1213 25.49C31.5985 25.5301 32.0777 25.4405 32.5082 25.2306C32.9386 25.0206 33.3043 24.6982 33.5665 24.2975C33.8287 23.8967 33.9777 23.4325 33.9977 22.954C34.0177 22.4755 33.9079 22.0005 33.68 21.5793C33.4521 21.1581 33.1145 20.8064 32.703 20.5613C32.2916 20.3162 31.8215 20.187 31.3426 20.1872ZM29.2178 16.4688C29.3228 16.4688 29.4255 16.4999 29.5129 16.5583C29.6002 16.6167 29.6683 16.6996 29.7085 16.7967C29.7487 16.8938 29.7593 17.0006 29.7388 17.1036C29.7183 17.2067 29.6677 17.3013 29.5934 17.3756C29.5191 17.4499 29.4244 17.5005 29.3214 17.521C29.2184 17.5415 29.1115 17.531 29.0145 17.4908C28.9174 17.4506 28.8344 17.3825 28.7761 17.2951C28.7177 17.2078 28.6866 17.1051 28.6866 17C28.6866 16.8591 28.7425 16.724 28.8421 16.6244C28.9418 16.5248 29.0769 16.4688 29.2178 16.4688ZM30.2802 10.6255C30.3852 10.6255 30.4879 10.6567 30.5753 10.715C30.6627 10.7734 30.7307 10.8564 30.7709 10.9534C30.8112 11.0505 30.8217 11.1573 30.8012 11.2604C30.7807 11.3634 30.7301 11.458 30.6558 11.5323C30.5815 11.6066 30.4869 11.6572 30.3838 11.6777C30.2808 11.6982 30.174 11.6877 30.0769 11.6475C29.9798 11.6073 29.8969 11.5392 29.8385 11.4518C29.7801 11.3645 29.749 11.2618 29.749 11.1567C29.749 11.0158 29.8049 10.8807 29.9046 10.7811C30.0042 10.6815 30.1393 10.6255 30.2802 10.6255ZM2.6574 11.6879C2.55234 11.6879 2.44964 11.6568 2.36228 11.5984C2.27492 11.54 2.20684 11.4571 2.16663 11.36C2.12643 11.2629 2.11591 11.1561 2.1364 11.0531C2.1569 10.95 2.20749 10.8554 2.28178 10.7811C2.35607 10.7068 2.45073 10.6562 2.55377 10.6357C2.65682 10.6152 2.76362 10.6257 2.86069 10.6659C2.95775 10.7062 3.04072 10.7742 3.09909 10.8616C3.15746 10.949 3.18861 11.0517 3.18861 11.1567C3.18861 11.2976 3.13265 11.4327 3.03302 11.5323C2.9334 11.632 2.79829 11.6879 2.6574 11.6879ZM4.78223 17.5312C4.67717 17.5312 4.57447 17.5001 4.48711 17.4417C4.39975 17.3833 4.33167 17.3003 4.29146 17.2033C4.25126 17.1062 4.24074 16.9994 4.26123 16.8964C4.28173 16.7933 4.33232 16.6987 4.40661 16.6244C4.4809 16.5501 4.57556 16.4995 4.6786 16.479C4.78164 16.4585 4.88845 16.469 4.98552 16.5092C5.08258 16.5494 5.16555 16.6175 5.22392 16.7049C5.28229 16.7922 5.31344 16.8949 5.31344 17C5.31344 17.1409 5.25747 17.276 5.15785 17.3756C5.05823 17.4752 4.92312 17.5312 4.78223 17.5312ZM3.71982 23.3745C3.61476 23.3745 3.51205 23.3433 3.4247 23.285C3.33734 23.2266 3.26925 23.1436 3.22905 23.0466C3.18884 22.9495 3.17832 22.8427 3.19882 22.7396C3.21932 22.6366 3.26991 22.5419 3.3442 22.4677C3.41849 22.3934 3.51314 22.3428 3.61619 22.3223C3.71923 22.3018 3.82604 22.3123 3.9231 22.3525C4.02017 22.3927 4.10313 22.4608 4.1615 22.5482C4.21987 22.6355 4.25103 22.7382 4.25103 22.8433C4.25103 22.9842 4.19506 23.1193 4.09544 23.2189C3.99582 23.3185 3.8607 23.3745 3.71982 23.3745ZM22.8433 2.1262C22.9483 2.1262 23.051 2.15735 23.1384 2.21572C23.2258 2.27409 23.2938 2.35705 23.334 2.45412C23.3743 2.55119 23.3848 2.65799 23.3643 2.76104C23.3438 2.86408 23.2932 2.95873 23.2189 3.03302C23.1446 3.10732 23.05 3.15791 22.9469 3.1784C22.8439 3.1989 22.7371 3.18838 22.64 3.14818C22.5429 3.10797 22.46 3.03988 22.4016 2.95253C22.3432 2.86517 22.3121 2.76247 22.3121 2.6574C22.3121 2.51652 22.368 2.3814 22.4677 2.28178C22.5673 2.18216 22.7024 2.1262 22.8433 2.1262ZM17 4.25103C17.1051 4.25103 17.2078 4.28218 17.2951 4.34055C17.3825 4.39892 17.4506 4.48188 17.4908 4.57895C17.531 4.67601 17.5415 4.78282 17.521 4.88587C17.5005 4.98891 17.4499 5.08356 17.3756 5.15785C17.3013 5.23214 17.2067 5.28274 17.1036 5.30323C17.0006 5.32373 16.8938 5.31321 16.7967 5.273C16.6996 5.2328 16.6167 5.16471 16.5583 5.07736C16.4999 4.99 16.4688 4.8873 16.4688 4.78223C16.4688 4.64135 16.5248 4.50623 16.6244 4.40661C16.724 4.30699 16.8591 4.25103 17 4.25103ZM11.1567 3.18861C11.2618 3.18861 11.3645 3.21977 11.4518 3.27814C11.5392 3.33651 11.6073 3.41947 11.6475 3.51653C11.6877 3.6136 11.6982 3.72041 11.6777 3.82345C11.6572 3.9265 11.6066 4.02115 11.5323 4.09544C11.458 4.16973 11.3634 4.22032 11.2604 4.24082C11.1573 4.26132 11.0505 4.2508 10.9534 4.21059C10.8564 4.17038 10.7734 4.1023 10.715 4.01494C10.6567 3.92759 10.6255 3.82488 10.6255 3.71982C10.6255 3.57893 10.6815 3.44382 10.7811 3.3442C10.8807 3.24458 11.0158 3.18861 11.1567 3.18861ZM11.1567 31.8738C11.0517 31.8738 10.949 31.8426 10.8616 31.7843C10.7742 31.7259 10.7062 31.6429 10.6659 31.5459C10.6257 31.4488 10.6152 31.342 10.6357 31.239C10.6562 31.1359 10.7068 31.0413 10.7811 30.967C10.8554 30.8927 10.95 30.8421 11.0531 30.8216C11.1561 30.8011 11.2629 30.8116 11.36 30.8518C11.4571 30.892 11.54 30.9601 11.5984 31.0475C11.6568 31.1348 11.6879 31.2375 11.6879 31.3426C11.6879 31.4835 11.632 31.6186 11.5323 31.7182C11.4327 31.8178 11.2976 31.8738 11.1567 31.8738ZM17 29.749C16.8949 29.749 16.7922 29.7178 16.7049 29.6594C16.6175 29.6011 16.5494 29.5181 16.5092 29.421C16.469 29.324 16.4585 29.2172 16.479 29.1141C16.4995 29.0111 16.5501 28.9164 16.6244 28.8421C16.6987 28.7679 16.7933 28.7173 16.8964 28.6968C16.9994 28.6763 17.1062 28.6868 17.2033 28.727C17.3003 28.7672 17.3833 28.8353 17.4417 28.9226C17.5001 29.01 17.5312 29.1127 17.5312 29.2178C17.5312 29.3586 17.4752 29.4938 17.3756 29.5934C17.276 29.693 17.1409 29.749 17 29.749ZM22.8433 30.8114C22.7382 30.8114 22.6355 30.7802 22.5482 30.7219C22.4608 30.6635 22.3927 30.5805 22.3525 30.4835C22.3123 30.3864 22.3018 30.2796 22.3223 30.1765C22.3428 30.0735 22.3934 29.9788 22.4677 29.9046C22.5419 29.8303 22.6366 29.7797 22.7396 29.7592C22.8427 29.7387 22.9495 29.7492 23.0466 29.7894C23.1436 29.8296 23.2266 29.8977 23.285 29.9851C23.3433 30.0724 23.3745 30.1751 23.3745 30.2802C23.3745 30.4211 23.3185 30.5562 23.2189 30.6558C23.1193 30.7554 22.9842 30.8114 22.8433 30.8114ZM23.9057 23.9057H10.0943V10.0943H23.9057V23.9057ZM31.3426 23.3745C31.2375 23.3745 31.1348 23.3433 31.0475 23.285C30.9601 23.2266 30.892 23.1436 30.8518 23.0466C30.8116 22.9495 30.8011 22.8427 30.8216 22.7396C30.8421 22.6366 30.8927 22.5419 30.967 22.4677C31.0413 22.3934 31.1359 22.3428 31.239 22.3223C31.342 22.3018 31.4488 22.3123 31.5459 22.3525C31.6429 22.3927 31.7259 22.4608 31.7843 22.5482C31.8426 22.6355 31.8738 22.7382 31.8738 22.8433C31.8738 22.9842 31.8178 23.1193 31.7182 23.2189C31.6186 23.3185 31.4835 23.3745 31.3426 23.3745Z" fill="#0072DB"/>
<path d="M21.7809 11.1567H12.2192C11.6324 11.1567 11.1567 11.6324 11.1567 12.2192V21.7809C11.1567 22.3676 11.6324 22.8433 12.2192 22.8433H21.7809C22.3676 22.8433 22.8433 22.3676 22.8433 21.7809V12.2192C22.8433 11.6324 22.3676 11.1567 21.7809 11.1567Z" fill="#0072DB"/>
</g>
<defs>
<clipPath id="clip0_0:3">
<rect width="34" height="34" fill="white"/>
</clipPath>
</defs>
</svg>
